# xmcd
#
# Track frame offsets:
#	150
#	17813
#	30997
#	51807
#	73341
#	85752
#	102828
#	115662
#	136237
#	155923
#	168038
#	183963
#
# Disc length: 2626 seconds
#
# Revision: 0
# Processed by: cddbd v1.5.2PL0 Copyright (c) Steve Scherf et al.
# Submitted via: EasyCDDAExtractor 16.1.0.1
#
DISCID=930a400c
DTITLE=Jake Schepps - Expedition
DYEAR=2005
DGENRE=Bluegrass
TTITLE0=Bluff's Collar
TTITLE1=Master Of The Ages
TTITLE2=When I'm 64
TTITLE3=Sorrento Waltz
TTITLE4=Moo Old Cow
TTITLE5=Warbonnet
TTITLE6=Beyond The Blue
TTITLE7=The Narrows
TTITLE8=Samba De Orpheus
TTITLE9=A Footlight Favorite
TTITLE10=Civilization
TTITLE11=Lullaby Lucy
EXTD=
EXTT0=
EXTT1=
EXTT2=
EXTT3=
EXTT4=
EXTT5=
EXTT6=
EXTT7=
EXTT8=
EXTT9=
EXTT10=
EXTT11=
PLAYORDER=
